# xmcd CD database file
#
# Track frame offsets:
#	183
#	7990
#	22035
#	35425
#	48555
#	61485
#	74505
#	85785
#	96633
#	110065
#	119823
#	138695
#	152200
#	162073
#	173960
#	186675
#	198240
#	209373
#	219703
#
# Disc length: 3184 seconds
#
# Revision: 3
# Processed by: cddbd v1.5.2PL0 Copyright (c) Steve Scherf et al.
# Submitted via: CDex 1.40Beta4
#
DISCID=2b0c6e13
DTITLE=Various Artist - Best Of Irish Country Style 
DYEAR=1996
DGENRE=Country
TTITLE0=The Boys Of Armagh
TTITLE1=How Can You Buy Killarney
TTITLE2=The Cobbler
TTITLE3=Among The Wicklow Hills
TTITLE4=The Irish Rover
TTITLE5=Love Thee Dearest
TTITLE6=Macushila
TTITLE7=O'reilly's Daughter
TTITLE8=Come Back To Erin
TTITLE9=Mountain Dew
TTITLE10=If We Only Had Old Ireland Over Here
TTITLE11=Believe Me, If All Those Enderaing Young Charms
TTITLE12=I'll Tell My Ma
TTITLE13=Liverpool Lou
TTITLE14=Danny Boy
TTITLE15=I Wanna See Nashville
TTITLE16=Streets Of Baltimore
TTITLE17=Jug Of Punch
TTITLE18=I'll Take You Home Again, Kathleen
EXTD=ID3G:   2
EXTT0=
EXTT1=
EXTT2=
EXTT3=
EXTT4=
EXTT5=
EXTT6=
EXTT7=
EXTT8=
EXTT9=
EXTT10=
EXTT11=
EXTT12=
EXTT13=
EXTT14=
EXTT15=
EXTT16=
EXTT17=
EXTT18=
PLAYORDER=
